<svg id="Layer_1" data-name="Layer 1" xmlns="http://www.w3.org/2000/svg" viewBox="0 0 800 800"><defs><style>.cls-1{fill:#303f93;}.cls-2{fill:#fff;}</style></defs><rect class="cls-1" width="800" height="800" rx="112.03"/><g id="_2K6QUl" data-name="2K6QUl"><path class="cls-2" d="M399.93,623.51q-96.71,0-193.42,0c-37.07,0-64.39-27.33-64.4-64.37q0-124.92,0-249.84c0-36.63,27.45-64,64.21-64,22.57,0,45.13-.06,67.7.07,3.35,0,5.06-.75,6.05-4.27,2.08-7.38,4.69-14.61,7.24-21.85,9.28-26.29,32.34-42.69,60.11-42.72q52.65,0,105.31,0c27.54,0,50.53,16.3,59.83,42.34,2.59,7.23,5.1,14.49,7.24,21.86,1,3.5,2.54,4.71,6.31,4.67,22.57-.2,45.13-.11,67.7-.1,36.71,0,64.06,27.4,64.07,64.15q0,125.19,0,250.37c0,36-27.55,63.68-63.46,63.7Q497.18,623.54,399.93,623.51Zm0-34.35q95.9,0,191.81,0c20,0,31.8-11.67,31.8-31.57q0-123.3,0-246.61c0-19.59-11.81-31.32-31.49-31.34q-40.31,0-80.6,0c-11.09,0-16.3-3.73-19.85-14.31-3.74-11.17-7.34-22.39-11.11-33.54-4.62-13.66-14.65-20.88-29.1-20.9q-51.31-.08-102.62,0c-14.73,0-24.64,7.24-29.36,21.27-3.81,11.34-7.49,22.72-11.35,34-3.31,9.69-8.65,13.44-18.82,13.44q-40.29,0-80.59,0c-20.7,0-32.18,11.51-32.18,32.26q0,122.24,0,244.46c0,21.48,11.29,32.81,32.73,32.81Z"/><path class="cls-2" d="M271.06,425.52A128.72,128.72,0,0,1,399.71,296.86c71.93,0,129.3,57.61,129.22,129.75-.08,70.77-57.95,128.16-129.21,128.12A128.71,128.71,0,0,1,271.06,425.52Zm129,94.85c51.2.23,94.14-42.31,94.54-93.67.4-52-42.16-95.34-93.78-95.47a94.91,94.91,0,0,0-95.34,94.45C305.18,477.42,347.84,520.14,400,520.37Z"/><path class="cls-2" d="M589.11,331.68a17.18,17.18,0,1,1-34.34-.92c.16-9.64,8-17,17.88-16.7A17.07,17.07,0,0,1,589.11,331.68Z"/></g></svg>