<svg id="Layer_1" data-name="Layer 1" xmlns="http://www.w3.org/2000/svg" viewBox="0 0 800 521.29"><defs><style>.cls-1{fill:#303f93;}.cls-2{fill:#ffcb05;}.cls-3{fill:#45b753;}</style></defs><path class="cls-1" d="M291.65,275.59,359.42,284q-16,59.39-59.39,92.17T189.29,408.92q-84.9,0-134.61-52.28T5,210Q5,112.37,55.22,58.46T185.64,4.54q77.6,0,126.78,52.83T361.6,206q0,5.83-.36,17.49H72.71q3.63,63.75,36.06,97.63T189.65,355q36.07,0,61.57-18.94T291.65,275.59Zm-215.3-106h216Q288,120.76,267.61,96.35q-31.34-37.89-81.24-37.89-45.18,0-76,30.24T76.35,169.57Z"/><path class="cls-2" d="M507.41,275.59,575.17,284q-16,59.39-59.38,92.17T405,408.92q-84.89,0-134.61-52.28T220.7,210q0-97.63,50.28-151.55T401.4,4.54q77.6,0,126.78,52.83T577.36,206q0,5.83-.37,17.49H288.46q3.65,63.75,36.07,97.63T405.4,355q36.08,0,61.57-18.94T507.41,275.59Zm-215.3-106h216q-4.38-48.81-24.77-73.22Q452,58.46,402.13,58.46q-45.18,0-76,30.24T292.11,169.57Z"/><path class="cls-3" d="M723.16,275.59,790.92,284q-16,59.39-59.38,92.17T620.8,408.92q-84.9,0-134.61-52.28T436.46,210q0-97.63,50.27-151.55T617.15,4.54q77.6,0,126.78,52.83T793.11,206q0,5.83-.36,17.49H504.22q3.63,63.75,36.06,97.63T621.16,355q36.06,0,61.57-18.94T723.16,275.59Zm-215.3-106h216q-4.36-48.81-24.77-73.22-31.33-37.89-81.24-37.89-45.18,0-76,30.24T507.86,169.57Z"/><path class="cls-1" d="M50.12,482.19l4.76.58a11.58,11.58,0,0,1-4.17,6.47,12.52,12.52,0,0,1-7.77,2.3,12.4,12.4,0,0,1-9.44-3.67Q30,484.21,30,477.59q0-6.85,3.53-10.63a11.91,11.91,0,0,1,9.15-3.79,11.6,11.6,0,0,1,8.89,3.71Q55,470.59,55,477.31c0,.27,0,.68,0,1.22H34.77a10.41,10.41,0,0,0,2.53,6.85A7.49,7.49,0,0,0,43,487.76a7,7,0,0,0,4.32-1.33A8.8,8.8,0,0,0,50.12,482.19ZM35,474.75H50.18a9.31,9.31,0,0,0-1.74-5.14,7.06,7.06,0,0,0-5.7-2.65,7.29,7.29,0,0,0-5.33,2.12A8.4,8.4,0,0,0,35,474.75Z"/><path class="cls-1" d="M60.55,490.93V453.46h4.6v37.47Z"/><path class="cls-1" d="M90.86,482.19l4.75.58a11.62,11.62,0,0,1-4.16,6.47,12.56,12.56,0,0,1-7.77,2.3q-6,0-9.44-3.67t-3.49-10.28q0-6.85,3.52-10.63a11.93,11.93,0,0,1,9.15-3.79,11.62,11.62,0,0,1,8.9,3.71q3.45,3.71,3.45,10.43c0,.27,0,.68,0,1.22H75.5A10.41,10.41,0,0,0,78,485.38a7.52,7.52,0,0,0,5.67,2.38A7,7,0,0,0,88,486.43,8.81,8.81,0,0,0,90.86,482.19Zm-15.1-7.44H90.91a9.16,9.16,0,0,0-1.74-5.14,7,7,0,0,0-5.7-2.65,7.27,7.27,0,0,0-5.32,2.12A8.36,8.36,0,0,0,75.76,474.75Z"/><path class="cls-1" d="M119.1,481l4.52.58a11.77,11.77,0,0,1-3.79,7.33,11.08,11.08,0,0,1-7.5,2.64,11.64,11.64,0,0,1-9-3.64Q100,484.26,100,477.46a18.87,18.87,0,0,1,1.46-7.69,10.17,10.17,0,0,1,4.43-4.95,13.18,13.18,0,0,1,6.48-1.65,11.25,11.25,0,0,1,7.23,2.24,10.25,10.25,0,0,1,3.61,6.35l-4.48.69a7.4,7.4,0,0,0-2.26-4.11,5.85,5.85,0,0,0-3.92-1.38,7.15,7.15,0,0,0-5.65,2.49q-2.17,2.49-2.17,7.88t2.1,7.95a6.81,6.81,0,0,0,5.46,2.48,6.49,6.49,0,0,0,4.53-1.66A8.28,8.28,0,0,0,119.1,481Z"/><path class="cls-1" d="M137.6,486.81l.66,4.07a17.11,17.11,0,0,1-3.47.4,7.87,7.87,0,0,1-3.89-.79,4.46,4.46,0,0,1-1.94-2.08,16.62,16.62,0,0,1-.56-5.43V467.36H125v-3.57h3.37v-6.72l4.57-2.76v9.48h4.63v3.57H133v15.87a7.65,7.65,0,0,0,.25,2.53,1.86,1.86,0,0,0,.79.9,3.08,3.08,0,0,0,1.57.33A15,15,0,0,0,137.6,486.81Z"/><path class="cls-1" d="M142.05,490.93V463.79h4.14v4.11a11.34,11.34,0,0,1,2.92-3.81,5.15,5.15,0,0,1,2.95-.92,9,9,0,0,1,4.73,1.49l-1.58,4.26a6.64,6.64,0,0,0-3.38-1,4.39,4.39,0,0,0-2.7.9,4.91,4.91,0,0,0-1.72,2.52,18,18,0,0,0-.76,5.37v14.21Z"/><path class="cls-1" d="M159.55,458.75v-5.29h4.6v5.29Zm0,32.18V463.79h4.6v27.14Z"/><path class="cls-1" d="M188.86,481l4.53.58a11.78,11.78,0,0,1-3.8,7.33,11,11,0,0,1-7.5,2.64,11.66,11.66,0,0,1-9-3.64q-3.37-3.64-3.38-10.44a18.88,18.88,0,0,1,1.45-7.69,10.19,10.19,0,0,1,4.44-4.95,13.12,13.12,0,0,1,6.48-1.65,11.29,11.29,0,0,1,7.23,2.24,10.28,10.28,0,0,1,3.6,6.35l-4.47.69a7.46,7.46,0,0,0-2.26-4.11A5.85,5.85,0,0,0,182.3,467a7.15,7.15,0,0,0-5.65,2.49q-2.18,2.49-2.17,7.88c0,3.65.69,6.3,2.09,7.95a6.83,6.83,0,0,0,5.47,2.48,6.46,6.46,0,0,0,4.52-1.66A8.23,8.23,0,0,0,188.86,481Z"/><path class="cls-1" d="M215,487.58a17.09,17.09,0,0,1-4.92,3.07,14.34,14.34,0,0,1-5.07.89q-4.47,0-6.87-2.18a7.2,7.2,0,0,1-2.41-5.59,7.59,7.59,0,0,1,3.29-6.29,11.22,11.22,0,0,1,3.31-1.5,32.12,32.12,0,0,1,4.08-.69,42.07,42.07,0,0,0,8.21-1.59c0-.63,0-1,0-1.2,0-1.87-.43-3.19-1.3-4a7.68,7.68,0,0,0-5.24-1.56,8.11,8.11,0,0,0-4.79,1.14,7,7,0,0,0-2.29,4l-4.49-.61a11.1,11.1,0,0,1,2-4.66,8.87,8.87,0,0,1,4.07-2.74,18.07,18.07,0,0,1,6.16-1,16.37,16.37,0,0,1,5.64.82,7.46,7.46,0,0,1,3.2,2.06,7.24,7.24,0,0,1,1.43,3.13,26.27,26.27,0,0,1,.23,4.24v6.14a66.65,66.65,0,0,0,.29,8.11,10.38,10.38,0,0,0,1.17,3.26H216A9.81,9.81,0,0,1,215,487.58Zm-.38-10.27a33.61,33.61,0,0,1-7.51,1.73,17.88,17.88,0,0,0-4,.92,4,4,0,0,0-1.81,1.5,3.87,3.87,0,0,0-.64,2.18,3.92,3.92,0,0,0,1.39,3.07,6,6,0,0,0,4.08,1.23,9.45,9.45,0,0,0,4.73-1.17,7.12,7.12,0,0,0,3-3.18,11.18,11.18,0,0,0,.74-4.6Z"/><path class="cls-1" d="M226.33,490.93V453.46h4.6v37.47Z"/><path class="cls-2" d="M271.18,482.19l4.75.58a11.58,11.58,0,0,1-4.17,6.47,14.11,14.11,0,0,1-17.21-1.37q-3.48-3.66-3.49-10.28,0-6.85,3.53-10.63a11.91,11.91,0,0,1,9.15-3.79,11.6,11.6,0,0,1,8.89,3.71q3.45,3.71,3.45,10.43c0,.27,0,.68,0,1.22H255.82a10.41,10.41,0,0,0,2.53,6.85,7.49,7.49,0,0,0,5.67,2.38,7,7,0,0,0,4.32-1.33A8.88,8.88,0,0,0,271.18,482.19Zm-15.11-7.44h15.16a9.31,9.31,0,0,0-1.74-5.14,7.06,7.06,0,0,0-5.7-2.65,7.29,7.29,0,0,0-5.33,2.12A8.4,8.4,0,0,0,256.07,474.75Z"/><path class="cls-2" d="M281.7,490.93V463.79h4.14v3.86a9.78,9.78,0,0,1,8.64-4.48,11.27,11.27,0,0,1,4.51.89,7,7,0,0,1,3.08,2.31,8.85,8.85,0,0,1,1.43,3.4,26.2,26.2,0,0,1,.26,4.47v16.69h-4.6V474.42a12.34,12.34,0,0,0-.54-4.21,4.44,4.44,0,0,0-1.9-2.22,6.09,6.09,0,0,0-3.21-.83,7.41,7.41,0,0,0-5.07,1.87c-1.42,1.24-2.14,3.6-2.14,7.07v14.83Z"/><path class="cls-2" d="M310,493.18l4.47.66a4.31,4.31,0,0,0,1.56,3,7.67,7.67,0,0,0,4.68,1.27,8.24,8.24,0,0,0,4.93-1.27,6.33,6.33,0,0,0,2.35-3.58,29.18,29.18,0,0,0,.33-5.91,9.45,9.45,0,0,1-7.51,3.56,10.27,10.27,0,0,1-8.67-4,15.57,15.57,0,0,1-3.06-9.69,18.07,18.07,0,0,1,1.4-7.16,11.33,11.33,0,0,1,4.08-5.08,11,11,0,0,1,6.27-1.79,9.74,9.74,0,0,1,7.93,3.89v-3.27H333v23.46c0,4.22-.43,7.22-1.29,9a9.48,9.48,0,0,1-4.09,4.18,14.21,14.21,0,0,1-6.89,1.53,13,13,0,0,1-7.84-2.18Q309.86,497.57,310,493.18Zm3.81-16.31c0,3.56.7,6.16,2.12,7.8a6.73,6.73,0,0,0,5.31,2.45,6.8,6.8,0,0,0,5.32-2.44q2.14-2.44,2.14-7.66c0-3.32-.73-5.82-2.21-7.51a6.85,6.85,0,0,0-5.32-2.53,6.64,6.64,0,0,0-5.22,2.49Q313.77,472,313.78,476.87Z"/><path class="cls-2" d="M339.94,458.75v-5.29h4.6v5.29Zm0,32.18V463.79h4.6v27.14Z"/><path class="cls-2" d="M351.55,490.93V463.79h4.14v3.86a9.75,9.75,0,0,1,8.63-4.48,11.27,11.27,0,0,1,4.51.89,7,7,0,0,1,3.08,2.31,8.85,8.85,0,0,1,1.43,3.4,26.2,26.2,0,0,1,.26,4.47v16.69H369V474.42a12.34,12.34,0,0,0-.54-4.21,4.4,4.4,0,0,0-1.9-2.22,6.09,6.09,0,0,0-3.21-.83,7.41,7.41,0,0,0-5.07,1.87q-2.13,1.86-2.13,7.07v14.83Z"/><path class="cls-2" d="M399.23,482.19l4.75.58a11.57,11.57,0,0,1-4.16,6.47,12.56,12.56,0,0,1-7.77,2.3q-6,0-9.44-3.67t-3.49-10.28q0-6.85,3.53-10.63a11.91,11.91,0,0,1,9.14-3.79,11.62,11.62,0,0,1,8.9,3.71q3.45,3.71,3.45,10.43c0,.27,0,.68,0,1.22H383.87a10.46,10.46,0,0,0,2.53,6.85,7.53,7.53,0,0,0,5.68,2.38,7,7,0,0,0,4.31-1.33A8.81,8.81,0,0,0,399.23,482.19Zm-15.1-7.44h15.15a9.16,9.16,0,0,0-1.74-5.14,7,7,0,0,0-5.69-2.65,7.28,7.28,0,0,0-5.33,2.12A8.36,8.36,0,0,0,384.13,474.75Z"/><path class="cls-2" d="M428.34,482.19l4.75.58a11.62,11.62,0,0,1-4.16,6.47,12.56,12.56,0,0,1-7.77,2.3,12.42,12.42,0,0,1-9.45-3.67q-3.48-3.66-3.48-10.28,0-6.85,3.52-10.63a11.91,11.91,0,0,1,9.15-3.79,11.58,11.58,0,0,1,8.89,3.71q3.46,3.71,3.46,10.43c0,.27,0,.68,0,1.22H413a10.41,10.41,0,0,0,2.53,6.85,7.52,7.52,0,0,0,5.67,2.38,7,7,0,0,0,4.32-1.33A8.88,8.88,0,0,0,428.34,482.19Zm-15.1-7.44h15.15a9.16,9.16,0,0,0-1.74-5.14A7,7,0,0,0,421,467a7.29,7.29,0,0,0-5.33,2.12A8.35,8.35,0,0,0,413.24,474.75Z"/><path class="cls-2" d="M438.82,490.93V463.79H443v4.11a11.34,11.34,0,0,1,2.92-3.81,5.15,5.15,0,0,1,2.95-.92,9,9,0,0,1,4.73,1.49L452,468.92a6.64,6.64,0,0,0-3.38-1,4.44,4.44,0,0,0-2.71.9,5,5,0,0,0-1.71,2.52,18,18,0,0,0-.76,5.37v14.21Z"/><path class="cls-2" d="M456.32,458.75v-5.29h4.6v5.29Zm0,32.18V463.79h4.6v27.14Z"/><path class="cls-2" d="M467.92,490.93V463.79h4.14v3.86a9.77,9.77,0,0,1,8.64-4.48,11.27,11.27,0,0,1,4.51.89,7,7,0,0,1,3.08,2.31,8.85,8.85,0,0,1,1.43,3.4,26.2,26.2,0,0,1,.26,4.47v16.69h-4.6V474.42a12.34,12.34,0,0,0-.54-4.21,4.44,4.44,0,0,0-1.9-2.22,6.09,6.09,0,0,0-3.21-.83,7.41,7.41,0,0,0-5.07,1.87q-2.15,1.86-2.14,7.07v14.83Z"/><path class="cls-2" d="M496.19,493.18l4.47.66a4.31,4.31,0,0,0,1.56,3,7.66,7.66,0,0,0,4.67,1.27,8.26,8.26,0,0,0,4.94-1.27,6.33,6.33,0,0,0,2.35-3.58,29.18,29.18,0,0,0,.33-5.91,9.47,9.47,0,0,1-7.51,3.56,10.27,10.27,0,0,1-8.67-4,15.57,15.57,0,0,1-3.06-9.69,18.07,18.07,0,0,1,1.4-7.16,11.33,11.33,0,0,1,4.08-5.08,11,11,0,0,1,6.27-1.79,9.72,9.72,0,0,1,7.92,3.89v-3.27h4.25v23.46c0,4.22-.43,7.22-1.29,9a9.48,9.48,0,0,1-4.09,4.18,14.21,14.21,0,0,1-6.89,1.53,13.05,13.05,0,0,1-7.85-2.18Q496.09,497.57,496.19,493.18Zm3.8-16.31q0,5.34,2.13,7.8a6.73,6.73,0,0,0,5.31,2.45,6.8,6.8,0,0,0,5.32-2.44q2.14-2.44,2.14-7.66c0-3.32-.73-5.82-2.21-7.51a6.85,6.85,0,0,0-5.33-2.53,6.64,6.64,0,0,0-5.21,2.49Q500,472,500,476.87Z"/><path class="cls-3" d="M559.26,482.19l4.75.58a11.58,11.58,0,0,1-4.17,6.47,14.11,14.11,0,0,1-17.21-1.37q-3.48-3.66-3.49-10.28,0-6.85,3.53-10.63a11.91,11.91,0,0,1,9.15-3.79,11.6,11.6,0,0,1,8.89,3.71q3.45,3.71,3.45,10.43c0,.27,0,.68,0,1.22H543.9a10.41,10.41,0,0,0,2.53,6.85,7.49,7.49,0,0,0,5.67,2.38,7,7,0,0,0,4.32-1.33A8.88,8.88,0,0,0,559.26,482.19Zm-15.11-7.44h15.16a9.31,9.31,0,0,0-1.74-5.14,7.06,7.06,0,0,0-5.7-2.65,7.29,7.29,0,0,0-5.33,2.12A8.4,8.4,0,0,0,544.15,474.75Z"/><path class="cls-3" d="M569.79,490.93V463.79h4.13v3.86a9.78,9.78,0,0,1,8.64-4.48,11.27,11.27,0,0,1,4.51.89,7,7,0,0,1,3.08,2.31,8.85,8.85,0,0,1,1.43,3.4,26.2,26.2,0,0,1,.26,4.47v16.69h-4.6V474.42a12.34,12.34,0,0,0-.54-4.21,4.44,4.44,0,0,0-1.9-2.22,6.09,6.09,0,0,0-3.21-.83,7.41,7.41,0,0,0-5.07,1.87c-1.42,1.24-2.14,3.6-2.14,7.07v14.83Z"/><path class="cls-3" d="M608.94,486.81l.66,4.07a17.2,17.2,0,0,1-3.48.4,7.83,7.83,0,0,1-3.88-.79,4.41,4.41,0,0,1-1.94-2.08,16.34,16.34,0,0,1-.56-5.43V467.36h-3.38v-3.57h3.38v-6.72l4.57-2.76v9.48h4.63v3.57h-4.63v15.87a8,8,0,0,0,.24,2.53,1.92,1.92,0,0,0,.79.9,3.1,3.1,0,0,0,1.58.33A15,15,0,0,0,608.94,486.81Z"/><path class="cls-3" d="M632,482.19l4.75.58a11.57,11.57,0,0,1-4.16,6.47,12.56,12.56,0,0,1-7.77,2.3q-6,0-9.44-3.67t-3.49-10.28q0-6.85,3.53-10.63a11.91,11.91,0,0,1,9.14-3.79,11.62,11.62,0,0,1,8.9,3.71q3.45,3.71,3.45,10.43c0,.27,0,.68,0,1.22H616.65a10.46,10.46,0,0,0,2.53,6.85,7.53,7.53,0,0,0,5.68,2.38,7,7,0,0,0,4.31-1.33A8.81,8.81,0,0,0,632,482.19Zm-15.1-7.44h15.15a9.16,9.16,0,0,0-1.74-5.14,7,7,0,0,0-5.69-2.65,7.28,7.28,0,0,0-5.33,2.12A8.36,8.36,0,0,0,616.91,474.75Z"/><path class="cls-3" d="M642.49,490.93V463.79h4.14v4.11a11.34,11.34,0,0,1,2.92-3.81,5.16,5.16,0,0,1,3-.92,8.94,8.94,0,0,1,4.72,1.49l-1.58,4.26a6.63,6.63,0,0,0-3.37-1,4.4,4.4,0,0,0-2.71.9,5,5,0,0,0-1.71,2.52,17.69,17.69,0,0,0-.77,5.37v14.21Z"/><path class="cls-3" d="M660,501.33V463.79h4.19v3.52a10.27,10.27,0,0,1,3.35-3.1,9.18,9.18,0,0,1,4.52-1,10.72,10.72,0,0,1,6.13,1.79,11,11,0,0,1,4,5.05,18.46,18.46,0,0,1,1.35,7.14,18.22,18.22,0,0,1-1.49,7.5,11.24,11.24,0,0,1-4.35,5.11,11.11,11.11,0,0,1-6,1.78,8.65,8.65,0,0,1-4.13-1,9.46,9.46,0,0,1-3-2.45v13.21Zm4.16-23.82q0,5.24,2.12,7.74a6.52,6.52,0,0,0,5.14,2.51,6.63,6.63,0,0,0,5.25-2.6q2.19-2.58,2.19-8,0-5.19-2.14-7.77a6.42,6.42,0,0,0-5.09-2.58,6.61,6.61,0,0,0-5.2,2.74Q664.14,472.28,664.13,477.51Z"/><path class="cls-3" d="M689,490.93V463.79h4.14v4.11a11.47,11.47,0,0,1,2.93-3.81,5.15,5.15,0,0,1,2.95-.92,9,9,0,0,1,4.73,1.49l-1.58,4.26a6.64,6.64,0,0,0-3.38-1,4.42,4.42,0,0,0-2.71.9,5,5,0,0,0-1.71,2.52,18,18,0,0,0-.77,5.37v14.21Z"/><path class="cls-3" d="M706.53,458.75v-5.29h4.6v5.29Zm0,32.18V463.79h4.6v27.14Z"/><path class="cls-3" d="M716.29,482.83l4.55-.72A6.41,6.41,0,0,0,723,486.3a7.46,7.46,0,0,0,4.9,1.46,7.19,7.19,0,0,0,4.7-1.29,3.86,3.86,0,0,0,1.53-3,2.78,2.78,0,0,0-1.35-2.45,19.9,19.9,0,0,0-4.7-1.56,43,43,0,0,1-7-2.21,6.89,6.89,0,0,1-3-2.58,6.8,6.8,0,0,1-1-3.65,6.91,6.91,0,0,1,.83-3.36,7.54,7.54,0,0,1,2.26-2.57,9.79,9.79,0,0,1,2.93-1.34,14.11,14.11,0,0,1,4-.55,15.78,15.78,0,0,1,5.61.92,7.62,7.62,0,0,1,3.56,2.5,9.67,9.67,0,0,1,1.59,4.2l-4.5.61a4.92,4.92,0,0,0-1.77-3.27,6.54,6.54,0,0,0-4.16-1.17,7.58,7.58,0,0,0-4.52,1,3.07,3.07,0,0,0-1.36,2.46,2.54,2.54,0,0,0,.57,1.61,4,4,0,0,0,1.76,1.22c.46.17,1.81.57,4.06,1.18a56.88,56.88,0,0,1,6.81,2.13,6.91,6.91,0,0,1,3,2.42,6.74,6.74,0,0,1,1.1,3.93,7.72,7.72,0,0,1-1.34,4.33,8.65,8.65,0,0,1-3.87,3.15,14.15,14.15,0,0,1-5.73,1.11q-5.28,0-8.06-2.2A10.18,10.18,0,0,1,716.29,482.83Z"/><path class="cls-3" d="M762.88,482.19l4.75.58a11.62,11.62,0,0,1-4.16,6.47,12.56,12.56,0,0,1-7.77,2.3q-6,0-9.44-3.67t-3.49-10.28q0-6.85,3.52-10.63a11.91,11.91,0,0,1,9.15-3.79,11.62,11.62,0,0,1,8.9,3.71q3.45,3.71,3.45,10.43c0,.27,0,.68,0,1.22H747.52a10.41,10.41,0,0,0,2.53,6.85,7.52,7.52,0,0,0,5.67,2.38,7,7,0,0,0,4.32-1.33A8.88,8.88,0,0,0,762.88,482.19Zm-15.1-7.44h15.15a9.16,9.16,0,0,0-1.74-5.14,7,7,0,0,0-5.7-2.65,7.25,7.25,0,0,0-5.32,2.12A8.36,8.36,0,0,0,747.78,474.75Z"/></svg>